<?xml version="1.0" encoding="UTF-8" standalone="no"?>
<!-- Created with Inkscape (http://www.inkscape.org/) -->

<svg
   xmlns:dc="http://purl.org/dc/elements/1.1/"
   xmlns:cc="http://creativecommons.org/ns#"
   xmlns:rdf="http://www.w3.org/1999/02/22-rdf-syntax-ns#"
   xmlns:svg="http://www.w3.org/2000/svg"
   xmlns="http://www.w3.org/2000/svg"
   xmlns:sodipodi="http://sodipodi.sourceforge.net/DTD/sodipodi-0.dtd"
   xmlns:inkscape="http://www.inkscape.org/namespaces/inkscape"
   width="118.1225"
   height="118.125"
   id="svg4499"
   version="1.1"
   inkscape:version="0.48.4 r9939"
   sodipodi:docname="Nuevo documento 20">
  <defs
     id="defs4501" />
  <sodipodi:namedview
     id="base"
     pagecolor="#ffffff"
     bordercolor="#666666"
     borderopacity="1.0"
     inkscape:pageopacity="0.0"
     inkscape:pageshadow="2"
     inkscape:zoom="0.35"
     inkscape:cx="-99.510175"
     inkscape:cy="64.776767"
     inkscape:document-units="px"
     inkscape:current-layer="layer1"
     showgrid="false"
     fit-margin-top="0"
     fit-margin-left="0"
     fit-margin-right="0"
     fit-margin-bottom="0"
     inkscape:window-width="503"
     inkscape:window-height="421"
     inkscape:window-x="26"
     inkscape:window-y="26"
     inkscape:window-maximized="0" />
  <metadata
     id="metadata4504">
    <rdf:RDF>
      <cc:Work
         rdf:about="">
        <dc:format>image/svg+xml</dc:format>
        <dc:type
           rdf:resource="http://purl.org/dc/dcmitype/StillImage" />
        <dc:title></dc:title>
      </cc:Work>
    </rdf:RDF>
  </metadata>
  <g
     inkscape:label="Capa 1"
     inkscape:groupmode="layer"
     id="layer1"
     transform="translate(-449.51017,-479.01395)">
    <g
       transform="matrix(1.25,0,0,-1.25,198.92055,1358.5562)"
       id="g3835">
      <g
         transform="translate(200.4717,656.3838)"
         id="g196">
        <path
           inkscape:connector-curvature="0"
           id="path198"
           style="fill:#f02933;fill-opacity:1;fill-rule:nonzero;stroke:none"
           d="M 0,0 C 0,26.094 21.156,47.25 47.25,47.25 73.346,47.25 94.498,26.094 94.498,0 94.498,-26.098 73.346,-47.25 47.25,-47.25 21.156,-47.25 0,-26.098 0,0" />
      </g>
      <g
         transform="translate(275.7832,657.4355)"
         id="g410">
        <path
           inkscape:connector-curvature="0"
           id="path412"
           style="fill:none;stroke:#ffffff;stroke-width:2;stroke-linecap:butt;stroke-linejoin:miter;stroke-miterlimit:4;stroke-opacity:1;stroke-dasharray:none"
           d="m 0,0 -27.109,26.847 c -0.531,0.525 -1.377,0.525 -1.908,0 L -56.126,0 c -0.394,-0.384 -0.51,-0.969 -0.302,-1.48 0.21,-0.509 0.705,-0.84 1.255,-0.84 l 7.592,0 0,-25.217 c 0,-0.753 0.607,-1.359 1.356,-1.359 l 12.197,0 c 0.753,0 1.36,0.606 1.36,1.359 l 0,16.535 9.211,0 0,-16.535 c 0,-0.753 0.607,-1.359 1.356,-1.359 l 12.2,0 c 0.75,0 1.357,0.606 1.357,1.359 l 0,25.217 7.591,0 c 0.551,0 1.046,0.331 1.256,0.84 C 0.51,-0.969 0.395,-0.384 0,0 z" />
      </g>
    </g>
  </g>
</svg>
