<?xml version="1.0" encoding="UTF-8" standalone="no"?>
<!-- Created with Inkscape (http://www.inkscape.org/) -->

<svg
   xmlns:dc="http://purl.org/dc/elements/1.1/"
   xmlns:cc="http://creativecommons.org/ns#"
   xmlns:rdf="http://www.w3.org/1999/02/22-rdf-syntax-ns#"
   xmlns:svg="http://www.w3.org/2000/svg"
   xmlns="http://www.w3.org/2000/svg"
   xmlns:sodipodi="http://sodipodi.sourceforge.net/DTD/sodipodi-0.dtd"
   xmlns:inkscape="http://www.inkscape.org/namespaces/inkscape"
   width="95.892967"
   height="42.054062"
   id="svg4128"
   version="1.1"
   inkscape:version="0.48.4 r9939"
   sodipodi:docname="1.svg">
  <defs
     id="defs4130" />
  <sodipodi:namedview
     id="base"
     pagecolor="#ffffff"
     bordercolor="#666666"
     borderopacity="1.0"
     inkscape:pageopacity="0.0"
     inkscape:pageshadow="2"
     inkscape:zoom="0.35"
     inkscape:cx="-13.48209"
     inkscape:cy="46.741232"
     inkscape:document-units="px"
     inkscape:current-layer="layer1"
     showgrid="false"
     inkscape:window-width="1366"
     inkscape:window-height="716"
     inkscape:window-x="0"
     inkscape:window-y="0"
     inkscape:window-maximized="1"
     fit-margin-top="0"
     fit-margin-left="0"
     fit-margin-right="0"
     fit-margin-bottom="0" />
  <metadata
     id="metadata4133">
    <rdf:RDF>
      <cc:Work
         rdf:about="">
        <dc:format>image/svg+xml</dc:format>
        <dc:type
           rdf:resource="http://purl.org/dc/dcmitype/StillImage" />
        <dc:title></dc:title>
      </cc:Work>
    </rdf:RDF>
  </metadata>
  <g
     inkscape:label="Capa 1"
     inkscape:groupmode="layer"
     id="layer1"
     transform="translate(-363.48209,-537.04935)">
    <g
       transform="matrix(1.25,0,0,-1.25,159.43959,1694.2216)"
       id="g3813">
      <g
         transform="translate(238.9775,895.6973)"
         id="g290">
        <path
           inkscape:connector-curvature="0"
           id="path292"
           style="fill:#dd2534;fill-opacity:1;fill-rule:nonzero;stroke:none"
           d="m 0,0 c -0.236,-1.38 -1.524,-2.465 -2.901,-2.567 -22.965,-1.381 -45.994,-1.381 -68.97,0 -1.377,0.102 -2.667,1.187 -2.902,2.567 -1.294,8.802 -1.294,17.635 0,26.436 0.235,1.38 1.526,2.465 2.902,2.568 22.975,1.382 46.005,1.382 68.97,0 C -1.524,28.901 -0.236,27.816 0,26.436 1.293,17.635 1.296,8.801 0,0" />
      </g>
      <g
         transform="translate(188.4053,909.1519)"
         id="g294">
        <path
           inkscape:connector-curvature="0"
           id="path296"
           style="fill:#ffffff;fill-opacity:1;fill-rule:nonzero;stroke:none"
           d="m 0,0 c 1.073,-0.002 1.651,-0.838 1.651,-1.756 0,-1.016 -0.578,-1.755 -1.651,-1.756 -1.075,10e-4 -1.62,0.707 -1.62,1.756 0,0.918 0.545,1.754 1.62,1.756 m -3.145,-2.098 c 0.13,-1.989 1.207,-2.922 3.101,-2.922 1.739,0 2.912,1.01 3.21,2.556 0,0 0.04,0.317 0.057,0.548 -0.002,0.093 -0.002,0.179 -0.002,0.259 0,0.891 -0.301,1.685 -0.815,2.255 C 1.89,1.169 1.224,1.517 0.361,1.517 -0.738,1.519 -1.247,1.017 -1.569,0.629 l -0.013,-0.022 0,3.671 c 0,0.053 -0.045,0.098 -0.097,0.098 l -1.371,0 c -0.056,0 -0.101,-0.045 -0.101,-0.098 l 0,-6.376 0.006,0 z" />
      </g>
      <g
         transform="translate(192.3413,904.5679)"
         id="g298">
        <path
           inkscape:connector-curvature="0"
           id="path300"
           style="fill:#ffffff;fill-opacity:1;fill-rule:nonzero;stroke:none"
           d="m 0,0 c 0,-0.055 0.042,-0.099 0.098,-0.099 l 1.371,0 c 0.055,0 0.1,0.044 0.1,0.099 l 0,8.846 c 0,0.056 -0.045,0.099 -0.1,0.099 l -1.371,0 C 0.042,8.945 0,8.902 0,8.846 L 0,0 z" />
      </g>
      <g
         transform="translate(196.3198,906.9351)"
         id="g302">
        <path
           inkscape:connector-curvature="0"
           id="path304"
           style="fill:#ffffff;fill-opacity:1;fill-rule:nonzero;stroke:none"
           d="m 0,0 c 0,0 -0.028,0.001 -0.023,-0.021 l -0.075,0.013 0.09,0.054 L 0,0 z" />
      </g>
      <g
         transform="translate(178.6021,905.7388)"
         id="g306">
        <path
           inkscape:connector-curvature="0"
           id="path308"
           style="fill:#ffffff;fill-opacity:1;fill-rule:nonzero;stroke:none"
           d="M 0,0 C 0.065,0.085 0.071,0.142 0.013,0.183 L -1.112,1.015 C -1.181,1.049 -1.243,1.016 -1.277,0.992 -1.821,0.298 -2.451,0 -3.1,0 -4.829,0 -5.781,1.373 -5.783,3.238 -5.781,4.976 -4.829,6.349 -3.1,6.351 -2.528,6.349 -1.974,6.173 -1.367,5.516 l 10e-4,0.001 c 0,0 0.048,-0.043 0.105,-0.004 l 0.002,-0.001 1.03,0.789 c 0.104,0.085 0.066,0.177 0.037,0.222 -0.827,0.95 -1.797,1.322 -2.919,1.322 -1.315,0 -2.348,-0.466 -3.148,-1.286 C -7.06,5.737 -7.435,4.56 -7.435,3.137 c 0,-1.384 0.375,-2.543 1.176,-3.354 0.8,-0.813 1.833,-1.275 3.148,-1.275 l 0.002,0 c 1.214,0 2.344,0.451 3.116,1.488 L 0,0 z" />
      </g>
      <g
         transform="translate(182.9116,907.1494)"
         id="g310">
        <path
           inkscape:connector-curvature="0"
           id="path312"
           style="fill:#ffffff;fill-opacity:1;fill-rule:nonzero;stroke:none"
           d="m 0,0 c 0,0 0.092,-0.022 0.092,-0.104 l 0.2,-0.02 L 0.242,0.051 -0.136,0.112 0,0 z" />
      </g>
      <g
         transform="translate(183.043,905.1924)"
         id="g314">
        <path
           inkscape:connector-curvature="0"
           id="path316"
           style="fill:#ffffff;fill-opacity:1;fill-rule:nonzero;stroke:none"
           d="m 0,0 c 0,0 0.048,0.148 0.048,-0.028 l 0.143,0.017 -0.2,0.458 L -0.236,0.249 0,0 z" />
      </g>
      <g
         transform="translate(183.0898,908.3052)"
         id="g318">
        <path
           inkscape:connector-curvature="0"
           id="path320"
           style="fill:#ffffff;fill-opacity:1;fill-rule:nonzero;stroke:none"
           d="m 0,0 c 0,-0.023 -0.011,-0.041 -0.032,-0.041 l 0,-0.024 0.09,0 L 0.033,0.005 0,0 z" />
      </g>
      <g
         transform="translate(206.7549,910.519)"
         id="g322">
        <path
           inkscape:connector-curvature="0"
           id="path324"
           style="fill:#ffffff;fill-opacity:1;fill-rule:nonzero;stroke:none"
           d="M 0,0 -1.414,0 C -1.469,0 -1.529,-0.04 -1.55,-0.092 l -1.421,-3.964 c -0.019,-0.05 -0.051,-0.05 -0.071,0 l -1.411,3.964 C -4.473,-0.04 -4.533,0 -4.587,0 L -6.06,0 c -0.055,0 -0.1,-0.045 -0.1,-0.098 0.007,-0.015 0.011,-0.028 0.018,-0.045 l 2.275,-5.816 c 0.021,-0.051 0.083,-0.091 0.139,-0.091 l 1.443,0 c 0.056,0 0.117,0.04 0.138,0.092 l 2.21,5.866 C 0.082,-0.04 0.054,0 0,0" />
      </g>
      <g
         transform="translate(213.2607,908.0464)"
         id="g326">
        <path
           inkscape:connector-curvature="0"
           id="path328"
           style="fill:#ffffff;fill-opacity:1;fill-rule:nonzero;stroke:none"
           d="m 0,0 c -0.406,0.102 -0.81,0.167 -1.105,0.271 -0.301,0.106 -0.48,0.24 -0.48,0.484 0.002,0.21 0.107,0.355 0.27,0.455 0.157,0.098 0.372,0.144 0.563,0.144 C -0.268,1.351 0.083,1.163 0.36,0.796 0.399,0.763 0.458,0.764 0.495,0.801 l 0.003,0 0.898,0.808 0.002,0.006 C 1.435,1.653 1.435,1.716 1.396,1.756 l 0,0.003 C 0.894,2.387 0.064,2.622 -0.713,2.622 -1.322,2.622 -1.93,2.473 -2.388,2.15 -2.847,1.829 -3.154,1.334 -3.153,0.656 c -10e-4,-1.162 0.835,-1.505 1.642,-1.698 0.405,-0.098 0.806,-0.164 1.103,-0.282 0.295,-0.115 0.478,-0.27 0.479,-0.56 0,-0.221 -0.128,-0.379 -0.314,-0.488 -0.189,-0.107 -0.433,-0.16 -0.645,-0.16 -0.597,10e-4 -0.978,0.281 -1.348,0.677 l -0.003,10e-4 c -0.038,0.039 -0.101,0.039 -0.14,0 l -10e-4,0 -0.831,-0.778 -0.068,-0.067 C -3.318,-2.736 -3.32,-2.799 -3.281,-2.84 L -3.125,-3 c 0.586,-0.533 1.32,-0.726 2.148,-0.726 l 0.002,0 c 0.616,0 1.265,0.124 1.766,0.431 0.499,0.307 0.848,0.801 0.848,1.524 C 1.639,-0.586 0.807,-0.206 0,0 m 4.008,2.473 -1.37,0 C 2.583,2.473 2.54,2.428 2.54,2.375 l 0,-5.854 c 0,-0.054 0.043,-0.099 0.098,-0.099 l 1.37,0 c 0.055,0 0.1,0.045 0.1,0.099 l 0,5.854 c 0,0.053 -0.045,0.098 -0.1,0.098 m -9.06,2.989 c -0.54,-10e-4 -0.934,-0.418 -0.935,-0.888 0.001,-0.469 0.395,-0.886 0.935,-0.886 0.535,0 0.957,0.38 0.957,0.886 0,0.507 -0.422,0.887 -0.957,0.888 M 8.295,-2.307 c -1.073,0 -1.519,0.838 -1.519,1.755 0,0.918 0.446,1.757 1.519,1.757 1.074,0 1.518,-0.839 1.518,-1.757 0,-0.917 -0.444,-1.755 -1.518,-1.755 m 0,4.929 C 7.383,2.622 6.662,2.305 6.067,1.75 5.473,1.192 5.208,0.398 5.208,-0.552 c 0,-0.948 0.265,-1.745 0.859,-2.302 0.595,-0.556 1.316,-0.872 2.228,-0.872 0.911,0 1.632,0.316 2.228,0.872 0.593,0.557 0.859,1.354 0.858,2.302 10e-4,0.95 -0.265,1.744 -0.858,2.302 C 9.927,2.305 9.206,2.622 8.295,2.622 m 9.051,-0.733 c -0.35,0.446 -0.908,0.733 -1.72,0.733 -0.941,0.003 -1.506,-0.455 -1.802,-1.01 -0.009,-0.015 -0.013,-0.005 -0.013,0 l 0,0.763 c 0,0.053 -0.045,0.096 -0.098,0.098 l -1.303,0 C 12.36,2.471 12.321,2.433 12.316,2.382 l 0,-5.861 c 10e-4,-0.054 0.046,-0.098 0.101,-0.099 l 1.369,0 c 0.055,10e-4 0.097,0.045 0.099,0.096 l 0,3.204 c 0.004,0.787 0.371,1.48 1.331,1.483 0.508,-0.003 0.763,-0.261 0.905,-0.608 0.14,-0.347 0.153,-0.784 0.153,-1.112 l 0,-2.716 0,-0.248 c 0,-0.054 0.046,-0.098 0.1,-0.099 l 1.371,0 c 0.05,10e-4 0.091,0.04 0.097,0.089 l 0,3.721 c 0,0.616 -0.146,1.212 -0.496,1.657 M 3.319,5.462 C 2.78,5.461 2.385,5.044 2.385,4.574 c 0,-0.469 0.395,-0.886 0.934,-0.886 0.534,0 0.956,0.38 0.956,0.886 0,0.507 -0.422,0.887 -0.956,0.888 m -33.643,-6.661 c -0.006,-0.818 -0.462,-1.328 -1.471,-1.333 -0.236,0 -0.393,0.058 -0.585,0.181 -0.192,0.124 -0.324,0.305 -0.324,0.566 0,0.405 0.23,0.624 0.684,0.747 0.448,0.121 0.999,0.138 1.408,0.138 l 0.288,0 0,-0.299 z m -1.084,3.821 c -0.938,0 -1.768,-0.279 -2.43,-0.933 -0.031,-0.035 -0.031,-0.084 -0.007,-0.121 l 0.719,-0.717 c 0.039,-0.031 0.09,-0.031 0.128,0.001 0.382,0.346 0.836,0.575 1.429,0.575 0.785,-0.001 1.329,-0.371 1.33,-1.083 l 0,-0.126 -0.336,0 c -0.748,0 -1.692,-0.032 -2.454,-0.312 -0.76,-0.277 -1.247,-0.815 -1.243,-1.802 0,-1.21 0.998,-1.828 2.116,-1.83 l 0.002,0 c 0.787,0 1.483,0.29 1.915,0.94 l 0,-0.296 c 0.028,-0.224 0.135,-0.496 0.489,-0.496 l 0.831,0 c 0.055,0 0.099,0.045 0.099,0.099 l 0,0.248 0.002,0 0,3.127 c 0,0.424 0,1.103 -0.324,1.682 -0.327,0.578 -0.983,1.047 -2.266,1.044 m 39.246,0.972 1.057,0 c 0.054,0 0.13,0.031 0.168,0.07 l 1.69,1.727 c 0.037,0.038 0.025,0.07 -0.031,0.07 l -1.602,0 C 9.066,5.461 9.02,5.458 9.016,5.453 9.012,5.448 8.985,5.408 8.954,5.363 L 7.794,3.676 C 7.764,3.63 7.782,3.594 7.838,3.594 m -12.193,-1.121 -1.371,0 c -0.053,0 -0.1,-0.045 -0.1,-0.098 l 0,-5.854 c 0,-0.054 0.047,-0.099 0.1,-0.099 l 1.371,0 c 0.054,0 0.1,0.045 0.1,0.099 l 0,5.854 c 0,0.053 -0.046,0.098 -0.1,0.098 m -9.844,-2.389 0,0 -2.75,0 0,0 c -0.009,0.001 -0.013,0.013 -0.013,0.016 0.128,0.811 0.658,1.327 1.398,1.327 0.897,0 1.344,-0.506 1.378,-1.327 0,-0.001 -0.004,-0.015 -0.013,-0.016 m -1.154,2.538 c -0.912,0 -1.734,-0.317 -2.328,-0.872 -0.594,-0.558 -0.861,-1.352 -0.861,-2.302 0,-0.948 0.267,-1.745 0.861,-2.302 0.594,-0.556 1.416,-0.872 2.328,-0.872 l 0.002,0 c 0.933,0 1.716,0.328 2.407,1.152 l 0,10e-4 c 0.038,0.04 0.038,0.102 -0.002,0.14 l -0.002,0.003 -0.963,0.726 -0.005,0.004 c -0.039,0.038 -0.103,0.038 -0.141,0 -0.361,-0.436 -0.732,-0.757 -1.445,-0.757 -0.806,10e-4 -1.352,0.505 -1.465,1.346 l 4.005,0 0,0.004 0.248,0 c 0.054,0 0.099,0.045 0.099,0.1 l 0,0.222 10e-4,0 0,0.122 c 0,1.045 -0.285,1.868 -0.785,2.428 -0.497,0.562 -1.112,0.857 -1.954,0.857" />
      </g>
    </g>
  </g>
</svg>
