<?xml version="1.0" encoding="UTF-8" standalone="no"?>
<!-- Created with Inkscape (http://www.inkscape.org/) -->

<svg
   xmlns:dc="http://purl.org/dc/elements/1.1/"
   xmlns:cc="http://creativecommons.org/ns#"
   xmlns:rdf="http://www.w3.org/1999/02/22-rdf-syntax-ns#"
   xmlns:svg="http://www.w3.org/2000/svg"
   xmlns="http://www.w3.org/2000/svg"
   xmlns:sodipodi="http://sodipodi.sourceforge.net/DTD/sodipodi-0.dtd"
   xmlns:inkscape="http://www.inkscape.org/namespaces/inkscape"
   width="95.882812"
   height="42.041405"
   id="svg4254"
   version="1.1"
   inkscape:version="0.48.4 r9939"
   sodipodi:docname="Nuevo documento 10">
  <defs
     id="defs4256" />
  <sodipodi:namedview
     id="base"
     pagecolor="#ffffff"
     bordercolor="#666666"
     borderopacity="1.0"
     inkscape:pageopacity="0.0"
     inkscape:pageshadow="2"
     inkscape:zoom="0.35"
     inkscape:cx="47.941406"
     inkscape:cy="21.020742"
     inkscape:document-units="px"
     inkscape:current-layer="layer1"
     showgrid="false"
     fit-margin-top="0"
     fit-margin-left="0"
     fit-margin-right="0"
     fit-margin-bottom="0"
     inkscape:window-width="503"
     inkscape:window-height="421"
     inkscape:window-x="26"
     inkscape:window-y="26"
     inkscape:window-maximized="0" />
  <metadata
     id="metadata4259">
    <rdf:RDF>
      <cc:Work
         rdf:about="">
        <dc:format>image/svg+xml</dc:format>
        <dc:type
           rdf:resource="http://purl.org/dc/dcmitype/StillImage" />
        <dc:title></dc:title>
      </cc:Work>
    </rdf:RDF>
  </metadata>
  <g
     inkscape:label="Capa 1"
     inkscape:groupmode="layer"
     id="layer1"
     transform="translate(-302.05859,-511.34152)">
    <g
       transform="matrix(1.25,0,0,-1.25,-1.3170313,1668.2933)"
       id="g3789">
      <g
         transform="translate(318.4355,895.5293)"
         id="g330">
        <path
           inkscape:connector-curvature="0"
           id="path332"
           style="fill:#195288;fill-opacity:1;fill-rule:nonzero;stroke:none"
           d="m 0,0 c -0.236,-1.378 -1.524,-2.462 -2.902,-2.566 -22.969,-1.38 -45.992,-1.38 -68.961,0 -1.377,0.104 -2.667,1.188 -2.9,2.566 -1.296,8.8 -1.296,17.63 0,26.429 0.233,1.381 1.524,2.465 2.9,2.567 22.968,1.382 45.992,1.381 68.961,0 C -1.524,28.894 -0.236,27.81 0,26.429 1.294,17.63 1.296,8.8 0,0" />
      </g>
      <g
         transform="translate(259.5088,913.4692)"
         id="g334">
        <path
           inkscape:connector-curvature="0"
           id="path336"
           style="fill:#ffffff;fill-opacity:1;fill-rule:nonzero;stroke:none"
           d="m 0,0 -1.991,-8.994 c -0.007,-0.031 0.012,-0.057 0.044,-0.057 l 1.773,0 c 0.031,0 0.063,0.026 0.07,0.057 l 0.829,3.598 c 0.006,0.031 0.037,0.057 0.07,0.057 l 2.965,0 c 0.032,0 0.063,0.025 0.069,0.056 l 0.425,1.44 c 0.008,0.031 -0.014,0.057 -0.046,0.057 l -3.135,0 c -0.032,0 -0.052,0.025 -0.044,0.056 l 0.507,2.12 c 0.006,0.031 0.039,0.057 0.07,0.057 l 3.076,0 c 0.032,0 0.064,0.025 0.071,0.056 l 0.653,1.441 C 5.414,-0.025 5.395,0 5.363,0 L 0,0 z" />
      </g>
      <g
         transform="translate(298.7856,913.5337)"
         id="g338">
        <path
           inkscape:connector-curvature="0"
           id="path340"
           style="fill:#ffffff;fill-opacity:1;fill-rule:nonzero;stroke:none"
           d="m 0,0 -1.516,0 c -0.031,0 -0.058,-0.012 -0.063,-0.024 -0.002,-0.015 -0.01,-0.051 -0.017,-0.082 l -1.921,-8.953 c -0.006,-0.031 0.014,-0.056 0.045,-0.056 l 1.516,0 c 0.032,0 0.063,0.025 0.071,0.056 l 1.93,9.002 C 0.051,-0.026 0.031,0 0,0" />
      </g>
      <g
         transform="translate(271.9146,907.5127)"
         id="g342">
        <path
           inkscape:connector-curvature="0"
           id="path344"
           style="fill:#ffffff;fill-opacity:1;fill-rule:nonzero;stroke:none"
           d="m 0,0 c -0.202,-0.93 -0.862,-1.768 -1.939,-1.769 -0.949,0.005 -1.323,0.643 -1.269,1.435 0.007,0.105 0.022,0.211 0.046,0.318 0.2,0.925 0.975,1.77 2.053,1.768 0.464,0 0.763,-0.154 0.946,-0.399 C 0.019,1.109 0.084,0.767 0.057,0.383 0.047,0.26 0.028,0.13 0,0 M 1.184,2.469 C 0.785,2.947 0.172,3.23 -0.614,3.23 -1.687,3.231 -2.258,2.757 -2.653,2.375 l 0.788,3.48 0.003,0.013 C -1.86,5.879 -1.859,5.89 -1.857,5.901 -1.852,5.95 -1.875,6 -1.915,6.015 -1.95,6.033 -1.981,6.03 -2.006,6.03 l -1.286,0 0,-0.002 c -0.105,0 -0.155,-0.014 -0.192,-0.118 l -1.322,-6.025 0.007,0.001 c -0.018,-0.101 -0.034,-0.224 -0.045,-0.362 -0.037,-0.501 0.009,-1.2 0.38,-1.779 0.368,-0.58 1.066,-1.03 2.297,-1.03 l 0.004,0 c 2.054,-0.002 3.073,1.317 3.508,2.363 l 0.008,0.023 c 0.055,0.134 0.107,0.276 0.151,0.421 0.029,0.098 0.054,0.187 0.073,0.272 L 1.581,-0.207 C 1.597,-0.145 1.612,-0.08 1.627,-0.016 1.668,0.179 1.695,0.369 1.709,0.553 1.766,1.321 1.583,1.99 1.184,2.469" />
      </g>
      <g
         transform="translate(266.4717,913.5571)"
         id="g346">
        <path
           inkscape:connector-curvature="0"
           id="path348"
           style="fill:#ffffff;fill-opacity:1;fill-rule:nonzero;stroke:none"
           d="m 0,0 c -0.587,0 -1.049,-0.452 -1.157,-0.957 -0.011,-0.049 -0.017,-0.098 -0.021,-0.145 -0.017,-0.224 0.042,-0.432 0.174,-0.584 0.134,-0.151 0.34,-0.246 0.604,-0.246 l 0.001,0 c 0.583,-0.001 1.066,0.414 1.183,0.96 0.01,0.05 0.018,0.1 0.022,0.151 0.017,0.235 -0.05,0.443 -0.191,0.589 C 0.476,-0.084 0.263,0.001 0,0" />
      </g>
      <g
         transform="translate(266.6138,910.5913)"
         id="g350">
        <path
           inkscape:connector-curvature="0"
           id="path352"
           style="fill:#ffffff;fill-opacity:1;fill-rule:nonzero;stroke:none"
           d="m 0,0 -1.501,0 c -0.03,-0.01 -0.078,-0.036 -0.095,-0.105 l -1.291,-6.011 c -0.007,-0.031 0.014,-0.057 0.045,-0.057 l 1.516,0 c 0.031,0 0.063,0.026 0.07,0.057 l 1.301,6.06 C 0.051,-0.025 0.03,0 0,0" />
      </g>
      <g
         transform="translate(278.8125,908.2598)"
         id="g354">
        <path
           inkscape:connector-curvature="0"
           id="path356"
           style="fill:#ffffff;fill-opacity:1;fill-rule:nonzero;stroke:none"
           d="m 0,0 -0.002,0.001 c 0,0 0.005,-0.07 -0.073,-0.093 l -2.82,0 c -0.031,0.022 -10e-4,0.086 -10e-4,0.086 L -2.9,-0.007 c 0.319,0.76 0.94,1.238 1.754,1.239 0.417,0 0.717,-0.108 0.907,-0.3 C -0.049,0.741 0.038,0.463 0.012,0.107 0.009,0.073 0.004,0.036 0,0 m 1.055,1.805 c -0.388,0.446 -0.982,0.678 -1.734,0.678 -1.858,10e-4 -3.509,-1.296 -3.923,-3.23 -0.04,-0.184 -0.065,-0.363 -0.079,-0.537 -0.061,-0.817 0.174,-1.498 0.638,-1.97 0.462,-0.474 1.15,-0.739 1.991,-0.739 l 0.003,0 c 0.961,0 1.883,0.344 2.777,1.203 L 0.72,-2.786 c 0.066,0.068 0.034,0.103 0.003,0.137 l -0.833,0.751 c -0.069,0.044 -0.131,0.016 -0.16,-0.002 -0.465,-0.444 -0.947,-0.766 -1.666,-0.766 -0.787,0.003 -1.307,0.473 -1.273,1.278 0.013,0.03 0.042,0.045 0.042,0.045 l 0,10e-4 4.345,0 0,0.007 c 0.165,0 0.174,0.028 0.196,0.136 L 1.379,-1.2 1.45,-0.876 c 0.056,0.263 0.092,0.514 0.11,0.751 0.062,0.83 -0.117,1.484 -0.505,1.93" />
      </g>
      <g
         transform="translate(289.3081,910.7065)"
         id="g358">
        <path
           inkscape:connector-curvature="0"
           id="path360"
           style="fill:#ffffff;fill-opacity:1;fill-rule:nonzero;stroke:none"
           d="m 0,0 -1.918,0 c -0.024,0 -0.029,0.009 -0.028,0.022 l 0.375,1.639 c 0.016,0.085 -0.013,0.099 -0.09,0.099 l -1.413,0 C -3.181,1.756 -3.202,1.729 -3.212,1.676 L -3.217,1.655 C -3.218,1.647 -3.221,1.638 -3.223,1.629 L -3.581,0 -3.877,-1.453 -4.473,-4.228 c -0.056,-0.26 -0.095,-0.498 -0.11,-0.713 -0.037,-0.486 0.044,-0.867 0.312,-1.123 0.269,-0.254 0.708,-0.375 1.371,-0.375 0.35,0 0.876,0.047 1.239,0.196 l 0,0.003 c 0.059,0.022 0.061,0.047 0.066,0.075 l 10e-4,0 0.286,1.327 c -0.002,0.001 -0.004,0.003 -0.003,0.006 0.006,0.036 -0.027,0.018 -0.027,0.018 l 0,0.001 -0.07,-0.045 c -0.197,-0.127 -0.571,-0.181 -0.829,-0.18 -0.267,0 -0.427,0.061 -0.518,0.163 -0.092,0.104 -0.125,0.256 -0.111,0.463 0.008,0.088 0.023,0.187 0.047,0.293 l 0.553,2.579 c 0.006,0.014 0.017,0.022 0.045,0.022 l 1.576,0 c 0.037,0.009 0.05,0.031 0.063,0.059 l 0.003,-10e-4 0.627,1.4 C 0.066,-0.006 0.053,0 0,0" />
      </g>
      <g
         transform="translate(284.8853,910.7065)"
         id="g362">
        <path
           inkscape:connector-curvature="0"
           id="path364"
           style="fill:#ffffff;fill-opacity:1;fill-rule:nonzero;stroke:none"
           d="M 0,0 -0.029,0 -0.117,0 -0.232,0 -0.434,0 -0.436,0 -1.362,0 -1.364,0 C -2.062,-0.036 -2.635,-0.375 -2.962,-0.717 -3.539,-1.325 -3.749,-2.31 -3.936,-3.135 l -0.003,-0.016 -0.662,-3.057 c -0.004,-0.045 0.014,-0.072 0.072,-0.08 l 1.417,0 c 0.077,0.008 0.124,0.041 0.145,0.095 l 0.682,3.14 c 0.076,0.303 0.152,0.736 0.335,1.028 0.186,0.291 0.468,0.507 1.009,0.507 l 0.605,0 c 0.057,0.005 0.061,0.029 0.073,0.076 l 0.29,1.399" />
      </g>
      <g
         transform="translate(293.4922,908.2598)"
         id="g366">
        <path
           inkscape:connector-curvature="0"
           id="path368"
           style="fill:#ffffff;fill-opacity:1;fill-rule:nonzero;stroke:none"
           d="m 0,0 -0.002,0.001 c 0,0 0.005,-0.07 -0.075,-0.093 l -2.816,0 c -0.033,0.022 -0.003,0.086 -0.003,0.086 l -0.003,-0.001 c 0.319,0.76 0.939,1.238 1.753,1.239 0.417,0 0.717,-0.108 0.908,-0.3 C -0.049,0.741 0.037,0.463 0.012,0.107 0.009,0.073 0.004,0.036 0,0 M 1.056,1.805 C 0.668,2.251 0.074,2.483 -0.679,2.483 -2.535,2.484 -4.187,1.187 -4.602,-0.747 -4.641,-0.931 -4.668,-1.11 -4.681,-1.284 c -0.061,-0.817 0.175,-1.498 0.638,-1.97 0.462,-0.474 1.151,-0.739 1.99,-0.739 l 0.004,0 c 0.962,0 1.884,0.344 2.777,1.203 L 0.72,-2.786 c 0.066,0.068 0.034,0.103 0.004,0.137 l -0.833,0.751 c -0.07,0.044 -0.132,0.016 -0.162,-0.002 -0.462,-0.444 -0.946,-0.766 -1.664,-0.766 -0.789,0.003 -1.309,0.473 -1.273,1.278 0.013,0.03 0.042,0.045 0.042,0.045 l 0,10e-4 4.344,0 0,0.007 c 0.165,0 0.175,0.028 0.197,0.136 L 1.379,-1.2 1.45,-0.876 c 0.056,0.263 0.092,0.514 0.11,0.751 0.061,0.83 -0.116,1.484 -0.504,1.93" />
      </g>
      <g
         transform="translate(293.2861,902.0366)"
         id="g370">
        <path
           inkscape:connector-curvature="0"
           id="path372"
           style="fill:#dd2534;fill-opacity:1;fill-rule:nonzero;stroke:none"
           d="m 0,0 c -2.193,0 -3.33,0.452 -3.376,0.47 0.007,-0.001 0.742,-0.14 1.993,-0.14 1.718,0 4.453,0.261 7.713,1.509 4.261,1.629 7.034,4.009 7.44,5.971 0.098,0.472 0.014,0.865 -0.257,1.199 -0.888,1.089 -3.499,1.174 -4.278,1.174 -0.2,0 -0.32,-0.005 -0.32,-0.005 l -0.027,0.335 c 0.023,0.003 0.562,0.057 1.325,0.057 1.549,0 3.59,-0.218 4.525,-1.259 0.388,-0.433 0.551,-0.97 0.483,-1.596 C 14.975,5.483 11.204,2.595 6.635,1.139 4.262,0.383 2.03,0 0,0" />
      </g>
    </g>
  </g>
</svg>
