<?xml version="1.0" encoding="utf-8"?>
<!-- Generator: Adobe Illustrator 16.0.0, SVG Export Plug-In . SVG Version: 6.00 Build 0)  -->
<!DOCTYPE svg PUBLIC "-//W3C//DTD SVG 1.1//EN" "http://www.w3.org/Graphics/SVG/1.1/DTD/svg11.dtd">
<svg version="1.1" id="Layer_1" xmlns="http://www.w3.org/2000/svg" xmlns:xlink="http://www.w3.org/1999/xlink" x="0px" y="0px"
	 width="679.667px" height="152.5px" viewBox="41.5 173.62 679.667 152.5" enable-background="new 41.5 173.62 679.667 152.5"
	 xml:space="preserve">
<g>
	<g>
		<g>
			<g>
				<g>
					<path fill="#DD2534" d="M372.187,307.235c-1.016,5.938-6.555,10.604-12.481,11.046c-98.795,5.938-197.866,5.938-296.713,0
						c-5.926-0.441-11.477-5.108-12.487-11.046c-5.567-37.867-5.567-75.865,0-113.729c1.012-5.938,6.568-10.606,12.487-11.052
						c98.838-5.941,197.918-5.941,296.713,0c5.927,0.445,11.466,5.114,12.481,11.052
						C377.752,231.371,377.762,269.372,372.187,307.235z"/>
				</g>
			</g>
		</g>
		<g>
			<path fill="#FFFFFF" d="M141.093,258.38c0.557,8.557,5.193,12.569,13.336,12.569c7.485,0,12.53-4.346,13.81-10.995
				c0,0,0.174-1.364,0.247-2.36c-0.008-0.397-0.009-0.767-0.009-1.111c0-3.836-1.293-7.251-3.506-9.703
				c-2.219-2.456-5.086-3.95-8.796-3.95c-4.731-0.012-6.915,2.151-8.305,3.817l-0.054,0.093v-15.791c0-0.227-0.193-0.42-0.419-0.42
				H141.5c-0.239,0-0.437,0.194-0.437,0.42v27.429L141.093,258.38z M154.622,249.353c4.614,0.009,7.101,3.607,7.101,7.557
				c0,4.369-2.486,7.55-7.101,7.554c-4.625-0.004-6.969-3.042-6.969-7.554C147.653,252.961,149.997,249.362,154.622,249.353z"/>
			<path fill="#FFFFFF" d="M171.554,269.073c0,0.235,0.182,0.426,0.421,0.426h5.897c0.237,0,0.431-0.189,0.431-0.426v-38.058
				c0-0.24-0.193-0.427-0.431-0.427h-5.897c-0.239,0-0.421,0.187-0.421,0.427V269.073z"/>
			<path fill="#FFFFFF" d="M188.67,258.889c0,0-0.122-0.004-0.101,0.093l-0.32-0.061l0.386-0.229L188.67,258.889z"/>
			<path fill="#FFFFFF" d="M112.445,264.035c0.282-0.367,0.309-0.609,0.057-0.787l-4.837-3.58c-0.3-0.145-0.563-0.003-0.711,0.102
				c-2.344,2.984-5.05,4.266-7.844,4.266c-7.437,0-11.534-5.903-11.541-13.928c0.006-7.477,4.104-13.383,11.541-13.393
				c2.46,0.009,4.843,0.764,7.455,3.594l0.004-0.004c0,0,0.205,0.183,0.452,0.014l0.007,0.007l4.437-3.395l0,0
				c0.447-0.365,0.282-0.761,0.157-0.958c-3.561-4.086-7.732-5.685-12.563-5.685c-5.651,0-10.101,2.002-13.54,5.53
				c-3.443,3.536-5.058,8.6-5.058,14.722c0,5.954,1.613,10.939,5.058,14.432c3.439,3.493,7.889,5.484,13.54,5.484h0.011
				c5.226,0,10.085-1.941,13.407-6.401L112.445,264.035z"/>
			<path fill="#FFFFFF" d="M130.988,257.968c0,0,0.395,0.097,0.395,0.445l0.86,0.085l-0.217-0.75l-1.623-0.263L130.988,257.968z"/>
			<path fill="#FFFFFF" d="M131.552,266.386c0,0,0.208-0.636,0.208,0.12l0.614-0.069l-0.86-1.975l-0.979,0.854L131.552,266.386z"/>
			<path fill="#FFFFFF" d="M131.753,252.995c0,0.102-0.049,0.174-0.136,0.174v0.107h0.386l-0.109-0.303L131.753,252.995z"/>
			<path fill="#FFFFFF" d="M233.562,243.471h-6.083c-0.233,0-0.494,0.17-0.584,0.396l-6.112,17.053c-0.08,0.217-0.222,0.217-0.306,0
				l-6.069-17.053c-0.088-0.226-0.348-0.396-0.579-0.396h-6.333c-0.236,0-0.434,0.193-0.434,0.42c0.03,0.063,0.05,0.124,0.08,0.194
				l9.788,25.022c0.089,0.216,0.354,0.391,0.6,0.391h6.206c0.241,0,0.501-0.175,0.593-0.396l9.505-25.235
				C233.917,243.641,233.796,243.471,233.562,243.471z"/>
			<path fill="#FFFFFF" d="M195.502,242.828c-3.925,0-7.459,1.367-10.015,3.754c-2.557,2.396-3.707,5.813-3.707,9.899
				c0,4.082,1.149,7.51,3.707,9.903c2.556,2.393,6.089,3.753,10.015,3.753h0.009c4.013,0,7.379-1.408,10.352-4.955v-0.005
				c0.164-0.174,0.164-0.44-0.009-0.603l-0.005-0.014l-4.143-3.123l-0.021-0.02c-0.169-0.163-0.444-0.163-0.608,0l0,0
				c-1.553,1.876-3.146,3.259-6.219,3.259c-3.465-0.007-5.812-2.174-6.3-5.79h17.229v-0.02h1.07c0.23,0,0.425-0.193,0.425-0.431
				v-0.954h0.004v-0.524c0-4.495-1.225-8.034-3.376-10.443C201.767,244.098,199.125,242.828,195.502,242.828z M200.465,253.745
				v0.003h-11.83v-0.003c-0.039-0.004-0.056-0.052-0.057-0.066c0.549-3.489,2.83-5.709,6.012-5.709c3.864,0,5.784,2.176,5.933,5.709
				C200.523,253.686,200.504,253.741,200.465,253.745z M242.814,243.471h-5.894c-0.232,0-0.432,0.193-0.432,0.42v25.182
				c0,0.235,0.198,0.426,0.432,0.426h5.894c0.234,0,0.434-0.189,0.434-0.426v-25.182
				C243.247,243.665,243.049,243.471,242.814,243.471z M295.271,238.646h4.545c0.238,0,0.565-0.134,0.726-0.301l7.271-7.43
				c0.16-0.164,0.107-0.3-0.134-0.3h-6.893c-0.229,0-0.433,0.014-0.445,0.035c-0.018,0.021-0.133,0.192-0.269,0.388l-4.99,7.255
				C294.951,238.491,295.033,238.646,295.271,238.646z M126.429,242.828c-4.033,0-7.606,1.199-10.452,4.014
				c-0.132,0.151-0.134,0.361-0.027,0.52l3.092,3.089c0.167,0.131,0.388,0.131,0.551-0.004c1.643-1.492,3.595-2.476,6.144-2.476
				c3.378,0.005,5.719,1.598,5.724,4.659v0.541h-1.444c-3.218,0-7.279,0.138-10.557,1.346c-3.272,1.189-5.365,3.505-5.351,7.752
				c0,5.204,4.292,7.862,9.104,7.871h0.009c3.385,0,6.382-1.248,8.239-4.045v1.273c0.121,0.965,0.58,2.132,2.105,2.132h3.571
				c0.237,0,0.429-0.189,0.429-0.426v-1.063h0.007v-13.455c0-1.821,0-4.742-1.393-7.233
				C134.774,244.832,131.951,242.816,126.429,242.828z M131.092,259.267c-0.022,3.518-1.987,5.713-6.326,5.733
				c-1.016,0-1.688-0.249-2.516-0.778c-0.828-0.533-1.396-1.313-1.396-2.434c0-1.742,0.991-2.686,2.947-3.217
				c1.922-0.52,4.296-0.59,6.053-0.59h1.237V259.267z M275.83,230.609c-2.319,0.006-4.018,1.798-4.018,3.819
				c0,2.017,1.697,3.813,4.018,3.813c2.296,0,4.114-1.636,4.114-3.813C279.944,232.252,278.126,230.616,275.83,230.609z
				 M336.177,245.982c-1.506-1.917-3.905-3.154-7.399-3.154c-4.048-0.012-6.478,1.957-7.754,4.346c-0.035,0.063-0.054,0.021-0.057,0
				v-3.282c0-0.227-0.195-0.412-0.419-0.42h-5.606c-0.212,0.008-0.382,0.17-0.402,0.392v25.215c0.004,0.23,0.194,0.417,0.432,0.421
				h5.892c0.234-0.004,0.416-0.189,0.426-0.411v-13.782c0.015-3.385,1.597-6.365,5.728-6.379c2.182,0.014,3.283,1.12,3.888,2.614
				c0.605,1.49,0.664,3.37,0.664,4.781v11.688l0,0v1.063c0,0.235,0.194,0.422,0.429,0.426h5.897
				c0.215-0.004,0.391-0.172,0.416-0.379v-16.009C338.309,250.458,337.685,247.894,336.177,245.982z M297.237,242.828
				c-3.92,0-7.025,1.367-9.583,3.754c-2.557,2.396-3.694,5.813-3.694,9.899c0,4.082,1.138,7.51,3.694,9.902
				c2.558,2.394,5.663,3.754,9.583,3.754c3.921,0,7.023-1.36,9.585-3.754c2.554-2.394,3.695-5.82,3.691-9.902
				c0.003-4.085-1.139-7.502-3.691-9.899C304.26,244.195,301.157,242.828,297.237,242.828z M297.237,264.034
				c-4.617,0-6.531-3.604-6.531-7.553c0-3.945,1.914-7.556,6.531-7.556c4.62,0,6.531,3.609,6.531,7.556
				C303.768,260.43,301.857,264.034,297.237,264.034z M239.818,230.609c-2.324,0.006-4.021,1.798-4.023,3.819
				c0.004,2.017,1.699,3.813,4.023,3.813c2.304,0,4.115-1.636,4.119-3.813C243.933,232.252,242.121,230.616,239.818,230.609z
				 M278.793,243.471h-5.895c-0.233,0-0.421,0.193-0.421,0.42v25.182c0,0.235,0.188,0.426,0.421,0.426h5.895
				c0.236,0,0.435-0.189,0.435-0.426v-25.182C279.228,243.665,279.03,243.471,278.793,243.471z M261.552,254.109
				c-1.746-0.438-3.482-0.72-4.757-1.169c-1.292-0.454-2.063-1.031-2.063-2.08c0.01-0.905,0.464-1.528,1.163-1.958
				c0.676-0.421,1.601-0.619,2.423-0.619c2.082,0.012,3.589,0.821,4.785,2.398c0.167,0.143,0.421,0.14,0.58-0.021h0.009l3.864-3.477
				l0.009-0.024c0.16-0.165,0.16-0.436-0.005-0.605l-0.004-0.015c-2.159-2.701-5.726-3.712-9.074-3.712
				c-2.617,0-5.23,0.645-7.204,2.029c-1.972,1.383-3.296,3.511-3.29,6.43c-0.006,5.001,3.592,6.477,7.063,7.304
				c1.74,0.425,3.465,0.706,4.743,1.211c1.271,0.5,2.061,1.166,2.063,2.41c0,0.955-0.553,1.631-1.352,2.1
				c-0.813,0.464-1.864,0.689-2.774,0.689c-2.571-0.003-4.209-1.206-5.802-2.911l-0.013-0.008c-0.164-0.165-0.434-0.165-0.603,0
				h-0.003l-3.576,3.351l-0.29,0.287c-0.167,0.162-0.177,0.431-0.008,0.607l0.671,0.687h-0.002c2.521,2.296,5.683,3.125,9.242,3.125
				h0.009c2.648,0,5.439-0.535,7.597-1.853c2.147-1.32,3.649-3.448,3.649-6.557C268.604,256.631,265.024,254.993,261.552,254.109z"
				/>
		</g>
	</g>
	<g>
		<g>
			<g>
				<g>
					<g>
						<path fill="#195288" d="M714.025,307.959c-1.016,5.932-6.559,10.595-12.482,11.041c-98.816,5.938-197.862,5.938-296.678,0
							c-5.928-0.446-11.475-5.109-12.48-11.041c-5.571-37.861-5.571-75.849,0-113.702c1.006-5.938,6.558-10.604,12.48-11.043
							c98.81-5.945,197.86-5.942,296.678,0c5.925,0.439,11.468,5.105,12.482,11.043C719.591,232.11,719.601,270.102,714.025,307.959
							z"/>
					</g>
				</g>
			</g>
		</g>
		<g>
			<g>
				<g>
					<path fill="#FFFFFF" d="M460.516,230.779l-8.564,38.693c-0.03,0.134,0.053,0.244,0.189,0.244h7.629
						c0.133,0,0.271-0.11,0.301-0.244l3.563-15.478c0.027-0.134,0.162-0.247,0.303-0.247h12.757c0.138,0,0.272-0.108,0.297-0.241
						l1.827-6.192c0.034-0.137-0.062-0.246-0.194-0.246h-13.487c-0.139,0-0.226-0.109-0.189-0.243l2.181-9.119
						c0.028-0.136,0.169-0.247,0.303-0.247h13.23c0.139,0,0.275-0.106,0.308-0.239l2.81-6.201c0.031-0.133-0.05-0.24-0.187-0.24
						L460.516,230.779L460.516,230.779z"/>
				</g>
			</g>
			<path fill="#FFFFFF" d="M629.49,230.502h-6.521c-0.133,0-0.252,0.052-0.271,0.104c-0.01,0.06-0.048,0.219-0.072,0.35
				l-8.269,38.517c-0.021,0.134,0.063,0.24,0.195,0.24h6.521c0.138,0,0.273-0.106,0.305-0.24l8.304-38.727
				C629.711,230.613,629.621,230.502,629.49,230.502z"/>
			<path fill="#FFFFFF" d="M518.98,245.781c-1.716-2.056-4.354-3.273-7.734-3.273c-4.616-0.004-7.073,2.034-8.772,3.678l3.392-14.97
				l0.011-0.053c0.01-0.049,0.016-0.096,0.022-0.143c0.025-0.21-0.074-0.43-0.246-0.492c-0.152-0.075-0.289-0.063-0.396-0.066
				h-5.529v0.009c-0.454,0-0.667,0.063-0.826,0.51l-5.688,25.919l0.028-0.004c-0.077,0.438-0.146,0.964-0.192,1.556
				c-0.157,2.157,0.041,5.166,1.633,7.657c1.587,2.494,4.589,4.431,9.882,4.431h0.021c8.834,0.008,13.219-5.667,15.091-10.168
				l0.034-0.097c0.237-0.577,0.459-1.188,0.65-1.815c0.124-0.417,0.231-0.803,0.313-1.166l0.016,0.003
				c0.068-0.267,0.137-0.546,0.198-0.823c0.177-0.834,0.296-1.654,0.354-2.443C521.484,250.719,520.694,247.844,518.98,245.781z
				 M513.889,256.404c-0.871,3.999-3.71,7.604-8.342,7.608c-4.086-0.02-5.694-2.764-5.463-6.172c0.031-0.449,0.098-0.909,0.2-1.37
				c0.859-3.978,4.196-7.61,8.83-7.604c1.998,0.001,3.285,0.663,4.071,1.716c0.783,1.05,1.064,2.523,0.943,4.173
				C514.088,255.288,514.007,255.844,513.889,256.404z"/>
			<g>
				<path fill="#FFFFFF" d="M490.471,230.401c-2.526,0-4.514,1.945-4.979,4.119c-0.049,0.208-0.073,0.418-0.091,0.622
					c-0.071,0.963,0.186,1.856,0.753,2.513c0.574,0.651,1.46,1.056,2.597,1.056h0.003c2.508,0.003,4.588-1.778,5.089-4.126
					c0.047-0.218,0.078-0.435,0.095-0.652c0.078-1.012-0.211-1.905-0.816-2.534C492.518,230.763,491.603,230.397,490.471,230.401z"
					/>
				<path fill="#FFFFFF" d="M491.082,243.16h-6.46c-0.127,0.042-0.331,0.156-0.405,0.454l-5.554,25.859
					c-0.028,0.134,0.061,0.244,0.193,0.244h6.521c0.135,0,0.27-0.11,0.3-0.244l5.598-26.071
					C491.302,243.27,491.213,243.16,491.082,243.16z"/>
			</g>
			<path fill="#FFFFFF" d="M548.103,245.427c-1.667-1.923-4.224-2.921-7.46-2.921c-7.993-0.004-15.096,5.578-16.879,13.897
				c-0.169,0.791-0.28,1.563-0.336,2.308c-0.266,3.518,0.744,6.445,2.74,8.478c1.987,2.039,4.949,3.179,8.564,3.179h0.015
				c4.135,0,8.104-1.478,11.947-5.177l-0.034-0.016c0.284-0.29,0.146-0.439,0.013-0.587l-3.583-3.229
				c-0.296-0.193-0.564-0.071-0.689,0.009c-1.998,1.907-4.072,3.293-7.165,3.293c-3.389-0.016-5.625-2.035-5.478-5.497
				c0.056-0.13,0.182-0.196,0.182-0.196v-0.004h18.69v-0.027c0.709,0,0.747-0.122,0.845-0.585l0.021,0.006l0.304-1.396
				c0.242-1.134,0.397-2.211,0.473-3.23C550.541,250.156,549.772,247.342,548.103,245.427z M543.563,253.191l-0.009-0.007
				c0,0,0.021,0.303-0.313,0.4h-12.13c-0.134-0.093-0.009-0.368-0.009-0.368l-0.014,0.005c1.371-3.272,4.044-5.328,7.546-5.333
				c1.79,0,3.083,0.467,3.9,1.292c0.817,0.822,1.189,2.019,1.079,3.548C543.603,252.877,543.58,253.035,543.563,253.191z"/>
			<path fill="#FFFFFF" d="M588.717,242.665h-8.252c-0.104-0.001-0.125-0.038-0.121-0.095l1.612-7.053
				c0.069-0.363-0.056-0.423-0.385-0.423h-0.001h-6.078c-0.462,0.017-0.55,0.132-0.597,0.358l-0.019,0.09
				c-0.009,0.037-0.02,0.073-0.029,0.114v-0.001l-1.539,7.01h-0.001l-1.271,6.247l0,0l-2.563,11.941
				c-0.242,1.117-0.41,2.141-0.479,3.067c-0.152,2.091,0.193,3.729,1.347,4.834c1.153,1.093,3.048,1.611,5.896,1.611
				c1.506,0,3.77-0.204,5.333-0.845l-0.001-0.014c0.252-0.093,0.26-0.2,0.282-0.322h0.007l1.229-5.708
				c-0.009-0.004-0.018-0.012-0.014-0.025c0.026-0.156-0.117-0.079-0.117-0.079v-0.001l-0.303,0.191
				c-0.848,0.546-2.457,0.775-3.563,0.771c-1.149,0-1.839-0.264-2.231-0.702c-0.394-0.441-0.535-1.1-0.475-1.99
				c0.03-0.379,0.099-0.803,0.199-1.26l2.383-11.095c0.022-0.06,0.07-0.097,0.189-0.097h6.783c0.157-0.037,0.212-0.13,0.271-0.249
				l0.011,0.005l2.7-6.029C589,242.69,588.944,242.665,588.717,242.665z"/>
			<path fill="#FFFFFF" d="M569.688,242.665h-0.124l0,0l0,0c0,0,0.229,0-0.381,0h-0.494c-0.237,0-0.566,0-0.868,0h-0.008h-3.986
				h-0.004c-3.003,0.155-5.47,1.611-6.876,3.086c-2.481,2.613-3.385,6.852-4.19,10.398v0.002l-0.014,0.07l-2.849,13.149
				c-0.019,0.193,0.06,0.313,0.311,0.342h6.095c0.332-0.029,0.534-0.175,0.626-0.407l2.932-13.51
				c0.329-1.298,0.657-3.165,1.445-4.42c0.798-1.254,2.01-2.182,4.338-2.184h2.603c0.246-0.021,0.263-0.124,0.313-0.325l1.247-6.019
				"/>
			<path fill="#FFFFFF" d="M611.258,245.427c-1.665-1.923-4.224-2.921-7.46-2.921c-7.986-0.004-15.096,5.578-16.878,13.897
				c-0.17,0.791-0.287,1.563-0.343,2.308c-0.261,3.518,0.752,6.445,2.744,8.478c1.991,2.039,4.953,3.179,8.562,3.179h0.018
				c4.137,0,8.105-1.478,11.946-5.177l-0.033-0.016c0.284-0.29,0.147-0.439,0.017-0.587l-3.582-3.229
				c-0.301-0.193-0.567-0.071-0.692,0.009c-1.995,1.907-4.074,3.293-7.163,3.293c-3.393-0.016-5.629-2.035-5.479-5.497
				c0.057-0.13,0.182-0.196,0.182-0.196v-0.004h18.688v-0.027c0.709,0,0.751-0.122,0.846-0.585l0.02,0.006l0.308-1.396
				c0.241-1.134,0.395-2.211,0.472-3.23C613.69,250.156,612.929,247.342,611.258,245.427z M606.717,253.191l-0.011-0.007
				c0,0,0.021,0.303-0.318,0.4h-12.116c-0.141-0.093-0.017-0.368-0.017-0.368l-0.014,0.005c1.374-3.272,4.042-5.328,7.544-5.333
				c1.792,0,3.085,0.467,3.905,1.292c0.816,0.822,1.185,2.019,1.077,3.548C606.755,252.877,606.732,253.035,606.717,253.191z"/>
		</g>
		<path fill="#DD2534" d="M605.83,279.964c-9.437,0-14.325-1.945-14.525-2.022l0,0c0.031,0.004,3.191,0.604,8.574,0.604
			c7.395,0,19.157-1.126,33.184-6.492c18.334-7.012,30.26-17.249,32.008-25.687c0.422-2.036,0.063-3.724-1.106-5.159
			c-3.818-4.688-15.053-5.052-18.403-5.052c-0.861,0-1.375,0.021-1.375,0.021l-0.116-1.44c0.099-0.015,2.416-0.246,5.698-0.246
			c6.664,0,15.445,0.938,19.467,5.418c1.67,1.859,2.37,4.169,2.079,6.863c-1.06,9.601-17.281,22.027-36.938,28.292
			C624.168,278.314,614.564,279.964,605.83,279.964L605.83,279.964z"/>
	</g>
</g>
</svg>
