<?xml version="1.0" encoding="UTF-8" standalone="no"?>
<!-- Created with Inkscape (http://www.inkscape.org/) -->

<svg
   xmlns:dc="http://purl.org/dc/elements/1.1/"
   xmlns:cc="http://creativecommons.org/ns#"
   xmlns:rdf="http://www.w3.org/1999/02/22-rdf-syntax-ns#"
   xmlns:svg="http://www.w3.org/2000/svg"
   xmlns="http://www.w3.org/2000/svg"
   xmlns:sodipodi="http://sodipodi.sourceforge.net/DTD/sodipodi-0.dtd"
   xmlns:inkscape="http://www.inkscape.org/namespaces/inkscape"
   width="77.503075"
   height="101.3085"
   id="svg4871"
   version="1.1"
   inkscape:version="0.48.4 r9939"
   sodipodi:docname="inbox-read.svg">
  <defs
     id="defs4873" />
  <sodipodi:namedview
     id="base"
     pagecolor="#ffffff"
     bordercolor="#666666"
     borderopacity="1.0"
     inkscape:pageopacity="0.0"
     inkscape:pageshadow="2"
     inkscape:zoom="0.35"
     inkscape:cx="-64.992204"
     inkscape:cy="-29.945755"
     inkscape:document-units="px"
     inkscape:current-layer="layer1"
     showgrid="false"
     fit-margin-top="0"
     fit-margin-left="0"
     fit-margin-right="0"
     fit-margin-bottom="0"
     inkscape:window-width="503"
     inkscape:window-height="421"
     inkscape:window-x="26"
     inkscape:window-y="26"
     inkscape:window-maximized="0" />
  <metadata
     id="metadata4876">
    <rdf:RDF>
      <cc:Work
         rdf:about="">
        <dc:format>image/svg+xml</dc:format>
        <dc:type
           rdf:resource="http://purl.org/dc/dcmitype/StillImage" />
        <dc:title></dc:title>
      </cc:Work>
    </rdf:RDF>
  </metadata>
  <g
     inkscape:label="Capa 1"
     inkscape:groupmode="layer"
     id="layer1"
     transform="translate(-414.9922,-401.10793)">
    <g
       transform="matrix(1.25,0,0,-1.25,136.54801,837.08005)"
       id="g3957">
      <g
         transform="translate(284.3589,288.1689)"
         id="g374">
        <path
           inkscape:connector-curvature="0"
           id="path376"
           style="fill:#808080;fill-opacity:1;fill-rule:nonzero;stroke:none"
           d="m 0,0 -20.302,0 c -0.219,0 -0.397,-0.179 -0.397,-0.397 l 0,-19.641 c 0,-0.16 0.095,-0.306 0.242,-0.366 0.05,-0.022 0.103,-0.034 0.155,-0.034 0.101,0 0.202,0.039 0.276,0.114 L 0.277,-0.684 C 0.394,-0.571 0.43,-0.399 0.371,-0.248 0.309,-0.099 0.163,0 0,0" />
      </g>
      <g
         transform="translate(238.6787,319.7354)"
         id="g378">
        <path
           inkscape:connector-curvature="0"
           id="path380"
           style="fill:#808080;fill-opacity:1;fill-rule:nonzero;stroke:none"
           d="m 0,0 -2.632,0 0,-6.753 2.632,0 c 0.633,0 1.191,0.084 1.676,0.251 0.484,0.169 0.891,0.404 1.22,0.705 0.328,0.301 0.574,0.662 0.743,1.082 0.167,0.42 0.251,0.881 0.251,1.385 0,1.046 -0.322,1.862 -0.966,2.45 C 2.279,-0.295 1.305,0 0,0" />
      </g>
      <g
         transform="translate(257.2378,317.9961)"
         id="g382">
        <path
           inkscape:connector-curvature="0"
           id="path384"
           style="fill:#808080;fill-opacity:1;fill-rule:nonzero;stroke:none"
           d="m 0,0 c -0.503,0.548 -1.114,0.968 -1.83,1.258 -0.718,0.291 -1.515,0.433 -2.392,0.433 l -3.902,0 0,-12.802 3.902,0 c 0.877,0 1.674,0.144 2.392,0.435 0.716,0.289 1.327,0.706 1.83,1.251 0.504,0.546 0.893,1.216 1.168,2.009 0.274,0.794 0.411,1.695 0.411,2.7 0,1.008 -0.137,1.908 -0.411,2.702 C 0.893,-1.222 0.504,-0.551 0,0" />
      </g>
      <g
         transform="translate(273.5098,319.6777)"
         id="g386">
        <path
           inkscape:connector-curvature="0"
           id="path388"
           style="fill:#808080;fill-opacity:1;fill-rule:nonzero;stroke:none"
           d="m 0,0 -7.873,0 0,-5.732 6.728,0 0,-1.808 -6.728,0 0,-7.05 -2.231,0 0,16.397 L 0,1.807 0,0 z m -13,-9.749 c -0.388,-1.007 -0.938,-1.868 -1.646,-2.586 -0.71,-0.718 -1.561,-1.272 -2.553,-1.666 -0.991,-0.394 -2.091,-0.589 -3.295,-0.589 l -6.133,0 0,16.397 6.133,0 c 1.204,0 2.304,-0.196 3.295,-0.587 0.992,-0.394 1.843,-0.951 2.553,-1.672 0.708,-0.721 1.258,-1.584 1.646,-2.591 0.39,-1.008 0.585,-2.125 0.585,-3.354 0,-1.228 -0.195,-2.345 -0.585,-3.352 m -16.122,4.382 c -0.267,-0.633 -0.657,-1.178 -1.173,-1.637 -0.514,-0.456 -1.154,-0.814 -1.916,-1.07 -0.764,-0.253 -1.636,-0.383 -2.62,-0.383 l -2.632,0 0,-6.133 -2.209,0 0,16.397 4.841,0 c 1.038,0 1.94,-0.119 2.706,-0.361 0.767,-0.24 1.402,-0.582 1.905,-1.022 0.504,-0.443 0.879,-0.977 1.128,-1.603 0.247,-0.626 0.371,-1.324 0.371,-2.093 0,-0.763 -0.133,-1.461 -0.401,-2.095 m -21.632,34.467 0,-38.539 c 0,-2.766 -0.001,-35.73 0,-35.998 0.096,-4.134 2.565,-6.509 6.767,-6.509 l 31.2,0 0,22.975 c 0,0.219 0.178,0.399 0.399,0.399 l 23.636,0 0,57.672 -62.002,0 z" />
      </g>
    </g>
  </g>
</svg>
