<?xml version="1.0" encoding="UTF-8" standalone="no"?>
<!-- Created with Inkscape (http://www.inkscape.org/) -->

<svg
   xmlns:dc="http://purl.org/dc/elements/1.1/"
   xmlns:cc="http://creativecommons.org/ns#"
   xmlns:rdf="http://www.w3.org/1999/02/22-rdf-syntax-ns#"
   xmlns:svg="http://www.w3.org/2000/svg"
   xmlns="http://www.w3.org/2000/svg"
   xmlns:sodipodi="http://sodipodi.sourceforge.net/DTD/sodipodi-0.dtd"
   xmlns:inkscape="http://www.inkscape.org/namespaces/inkscape"
   width="120.66406"
   height="120.66406"
   id="svg4499"
   version="1.1"
   inkscape:version="0.48.4 r9939"
   sodipodi:docname="avatar-home.svg">
  <defs
     id="defs4501" />
  <sodipodi:namedview
     id="base"
     pagecolor="#ffffff"
     bordercolor="#666666"
     borderopacity="1.0"
     inkscape:pageopacity="0.0"
     inkscape:pageshadow="2"
     inkscape:zoom="0.35"
     inkscape:cx="-116.32178"
     inkscape:cy="76.519092"
     inkscape:document-units="px"
     inkscape:current-layer="layer1"
     showgrid="false"
     fit-margin-top="0"
     fit-margin-left="0"
     fit-margin-right="0"
     fit-margin-bottom="0"
     inkscape:window-width="503"
     inkscape:window-height="421"
     inkscape:window-x="26"
     inkscape:window-y="26"
     inkscape:window-maximized="0" />
  <metadata
     id="metadata4504">
    <rdf:RDF>
      <cc:Work
         rdf:about="">
        <dc:format>image/svg+xml</dc:format>
        <dc:type
           rdf:resource="http://purl.org/dc/dcmitype/StillImage" />
        <dc:title></dc:title>
      </cc:Work>
    </rdf:RDF>
  </metadata>
  <g
     inkscape:label="Capa 1"
     inkscape:groupmode="layer"
     id="layer1"
     transform="translate(-466.32178,-488.21721)">
    <g
       transform="matrix(1.25,0,0,-1.25,50.685777,1369.0479)"
       id="g3898">
      <g
         transform="translate(333.5088,656.3833)"
         id="g30">
        <path
           inkscape:connector-curvature="0"
           id="path32"
           style="fill:none;stroke:#2c2c2c;stroke-width:2;stroke-linecap:butt;stroke-linejoin:miter;stroke-miterlimit:4;stroke-opacity:1;stroke-dasharray:none"
           d="M 0,0 C 0,26.104 21.162,47.266 47.266,47.266 73.37,47.266 94.53,26.104 94.53,0 94.53,-26.104 73.37,-47.264 47.266,-47.264 21.162,-47.264 0,-26.104 0,0 z" />
      </g>
      <g
         transform="translate(392.5859,677.8418)"
         id="g34">
        <path
           inkscape:connector-curvature="0"
           id="path36"
           style="fill:none;stroke:#2c2c2c;stroke-width:2;stroke-linecap:butt;stroke-linejoin:miter;stroke-miterlimit:4;stroke-opacity:1;stroke-dasharray:none"
           d="m 0,0 -11.813,-3 -11.811,3 -11.812,-3 0,-39.918 11.812,3 11.811,-3 11.813,3 11.813,-3 0,39.918 L 0,0 z" />
      </g>
      <g
         transform="translate(392.5859,677.8418)"
         id="g38">
        <path
           inkscape:connector-curvature="0"
           id="path40"
           style="fill:none;stroke:#2c2c2c;stroke-width:2;stroke-linecap:butt;stroke-linejoin:miter;stroke-miterlimit:4;stroke-opacity:1;stroke-dasharray:none"
           d="M 0,0 0,-39.834" />
      </g>
      <g
         transform="translate(380.7744,674.7598)"
         id="g42">
        <path
           inkscape:connector-curvature="0"
           id="path44"
           style="fill:none;stroke:#2c2c2c;stroke-width:2;stroke-linecap:butt;stroke-linejoin:miter;stroke-miterlimit:4;stroke-opacity:1;stroke-dasharray:none"
           d="M 0,0 0,-39.834" />
      </g>
      <g
         transform="translate(385.1758,643.0742)"
         id="g46">
        <path
           inkscape:connector-curvature="0"
           id="path48"
           style="fill:#ffffff;fill-opacity:1;fill-rule:nonzero;stroke:none"
           d="m 0,0 c -0.698,1.207 -1.052,2.518 -1.052,3.84 0,4.181 3.402,7.582 7.583,7.582 4.181,0 7.582,-3.401 7.582,-7.582 0,-1.332 -0.352,-2.643 -1.02,-3.793 L 6.531,-9.975 0,0 z" />
      </g>
      <g
         transform="translate(391.707,655.4961)"
         id="g50">
        <path
           inkscape:connector-curvature="0"
           id="path52"
           style="fill:#2c2c2c;fill-opacity:1;fill-rule:nonzero;stroke:none"
           d="m 0,0 c -4.732,0 -8.583,-3.85 -8.583,-8.582 0,-1.498 0.4,-2.981 1.156,-4.291 l 0.029,-0.049 0.031,-0.047 5.694,-8.697 1.673,-2.555 1.673,2.555 5.696,8.697 0.03,0.045 0.027,0.047 c 0.757,1.303 1.156,2.789 1.156,4.295 C 8.582,-3.85 4.732,0 0,0 m 0,-2 c 3.637,0 6.582,-2.947 6.582,-6.582 0,-1.201 -0.323,-2.322 -0.886,-3.291 L 0,-20.57 l -5.694,8.697 c -0.56,0.969 -0.889,2.09 -0.889,3.291 C -6.583,-4.947 -3.636,-2 0,-2" />
      </g>
      <g
         transform="translate(391.71,644.8047)"
         id="g54">
        <path
           inkscape:connector-curvature="0"
           id="path56"
           style="fill:#ffffff;fill-opacity:1;fill-rule:nonzero;stroke:#2c2c2c;stroke-width:2;stroke-linecap:butt;stroke-linejoin:miter;stroke-miterlimit:4;stroke-opacity:1;stroke-dasharray:none"
           d="m 0,0 c -1.261,0 -2.283,1.021 -2.283,2.281 0,1.26 1.022,2.283 2.283,2.283 1.26,0 2.282,-1.023 2.282,-2.283 C 2.282,1.021 1.26,0 0,0" />
      </g>
      <g
         transform="translate(368.9619,677.8418)"
         id="g58">
        <path
           inkscape:connector-curvature="0"
           id="path60"
           style="fill:none;stroke:#2c2c2c;stroke-width:2;stroke-linecap:butt;stroke-linejoin:miter;stroke-miterlimit:4;stroke-opacity:1;stroke-dasharray:none"
           d="M 0,0 0,-39.834" />
      </g>
    </g>
  </g>
</svg>
